<?xml version="1.0" standalone="no"?>
<!DOCTYPE svg PUBLIC "-//W3C//DTD SVG 20010904//EN"
 "http://www.w3.org/TR/2001/REC-SVG-20010904/DTD/svg10.dtd">
<svg version="1.0" xmlns="http://www.w3.org/2000/svg"
 width="162.000000pt" height="72.000000pt" viewBox="0 0 162.000000 72.000000"
 preserveAspectRatio="xMidYMid meet">

<g transform="translate(0.000000,72.000000) scale(0.100000,-0.100000)"
fill="#000000" stroke="none">
<path d="M292 619 c-27 -8 -32 -14 -26 -27 5 -9 8 -34 8 -55 0 -68 -51 -99
-138 -85 -40 6 -47 -122 -10 -194 23 -46 72 -96 119 -121 31 -17 58 -22 120
-22 69 0 86 4 127 27 92 54 147 160 134 254 -7 55 7 94 34 94 19 0 20 -6 20
-124 0 -110 -2 -125 -17 -129 -10 -3 7 -5 37 -5 30 0 47 2 38 5 -16 4 -18 19
-18 129 0 116 1 124 19 124 14 0 24 -13 34 -42 l15 -43 1 48 1 47 -90 0 c-61
0 -90 -4 -90 -12 0 -6 -13 7 -29 29 -67 93 -181 133 -289 102z m138 -165 c0
-33 3 -43 13 -38 10 6 10 4 0 -7 -17 -17 -17 -141 -1 -157 18 -18 46 -14 58 7
14 27 13 124 -2 143 -7 9 -20 18 -28 21 -10 3 -7 6 8 6 84 3 100 -157 19 -190
-25 -11 -34 -10 -57 3 -24 14 -28 14 -38 -1 -8 -12 -11 17 -11 116 -1 95 -4
133 -13 136 -7 3 2 6 20 6 32 1 32 0 32 -45z"/>
<path d="M818 423 c8 -3 12 -32 12 -93 0 -61 -4 -90 -12 -93 -7 -3 10 -5 37
-5 28 0 42 2 33 5 -15 4 -18 17 -18 82 0 48 5 82 13 90 10 11 10 13 0 7 -7 -4
-13 -2 -13 3 0 6 -15 11 -32 10 -18 0 -27 -3 -20 -6z"/>
<path d="M909 416 c7 -8 16 -27 21 -43 8 -26 8 -25 9 15 1 36 -2 42 -20 42
-18 0 -19 -3 -10 -14z"/>
<path d="M1003 420 c-15 -6 -23 -18 -23 -32 1 -22 1 -22 21 5 37 48 101 25 70
-25 -7 -12 -8 -17 -2 -13 17 10 13 -55 -4 -89 -14 -25 -14 -27 0 -16 12 10 15
10 15 -4 0 -11 8 -16 28 -15 15 0 21 3 15 6 -9 3 -13 31 -13 89 0 81 -1 85
-26 94 -30 12 -51 12 -81 0z"/>
<path d="M1158 423 c8 -3 12 -32 12 -93 0 -61 -4 -90 -12 -93 -7 -3 7 -5 32
-5 25 0 37 2 26 5 -17 4 -18 13 -14 79 3 41 11 81 19 91 13 16 12 17 -3 4 -16
-12 -18 -11 -18 3 0 11 -8 16 -27 15 -16 0 -22 -3 -15 -6z"/>
<path d="M1250 423 c25 -10 30 -25 30 -105 0 -52 -4 -78 -12 -81 -7 -3 5 -5
27 -5 22 0 34 2 28 5 -9 3 -13 31 -13 88 0 73 -3 86 -19 95 -11 5 -28 10 -38
9 -14 0 -15 -2 -3 -6z"/>
<path d="M1361 393 l0 -38 16 33 c13 25 23 32 45 32 31 0 34 -7 15 -35 -8 -11
-30 -50 -51 -87 l-37 -68 71 0 70 0 -1 43 0 42 -12 -35 c-10 -29 -17 -36 -44
-38 -18 -2 -33 0 -33 5 0 4 22 47 49 96 l50 87 -70 0 -69 0 1 -37z"/>
<path d="M1010 343 c-26 -10 -50 -36 -50 -55 0 -25 35 -58 62 -58 l22 0 -22
16 c-35 24 -25 82 18 97 13 5 13 5 0 5 -8 0 -22 -2 -30 -5z"/>
<path d="M656 192 c7 -4 14 -18 17 -32 l4 -25 2 27 c0 14 7 29 14 31 6 3 -1 6
-18 6 -16 0 -25 -3 -19 -7z"/>
<path d="M721 168 c1 -31 1 -31 9 -8 l7 25 11 -25 c7 -17 11 -19 11 -8 1 15
-23 48 -35 48 -2 0 -4 -15 -3 -32z"/>
<path d="M952 170 c0 -19 2 -27 5 -17 2 9 2 25 0 35 -3 9 -5 1 -5 -18z"/>
<path d="M986 192 c7 -4 14 -18 17 -32 l4 -25 2 27 c0 14 7 29 14 31 6 3 -1 6
-18 6 -16 0 -25 -3 -19 -7z"/>
<path d="M1096 192 c7 -4 14 -18 17 -32 l4 -25 2 27 c0 14 7 29 14 31 6 3 -1
6 -18 6 -16 0 -25 -3 -19 -7z"/>
<path d="M1161 168 c1 -31 1 -31 9 -8 l7 25 11 -25 c7 -17 11 -19 11 -8 1 15
-23 48 -35 48 -2 0 -4 -15 -3 -32z"/>
<path d="M1394 170 c1 -18 7 -25 21 -25 14 0 20 7 21 25 1 22 0 22 -3 3 -2
-13 -10 -23 -18 -23 -8 0 -16 10 -18 23 -3 19 -4 19 -3 -3z"/>
<path d="M782 165 c0 -16 2 -22 5 -12 2 9 2 23 0 30 -3 6 -5 -1 -5 -18z"/>
<path d="M810 182 c0 -5 7 -9 15 -9 8 0 15 4 15 9 0 4 -7 8 -15 8 -8 0 -15 -4
-15 -8z"/>
<path d="M883 183 c-7 -2 -13 -11 -13 -19 0 -9 4 -13 9 -10 5 4 11 0 14 -6 2
-7 4 -1 3 14 0 16 -1 28 -1 27 0 0 -6 -3 -12 -6z"/>
<path d="M1222 165 c0 -16 2 -22 5 -12 2 9 2 23 0 30 -3 6 -5 -1 -5 -18z"/>
<path d="M1250 182 c0 -5 7 -9 15 -9 8 0 15 4 15 9 0 4 -7 8 -15 8 -8 0 -15
-4 -15 -8z"/>
<path d="M1323 183 c-7 -2 -13 -11 -13 -19 0 -9 4 -13 9 -10 5 4 11 0 14 -6 2
-7 4 -1 3 14 0 16 -1 28 -1 27 0 0 -6 -3 -12 -6z"/>
<path d="M1460 175 c0 -8 6 -15 13 -15 8 0 7 -4 -3 -10 -13 -8 -13 -10 2 -10
23 0 33 19 13 26 -13 6 -14 8 -3 15 10 7 9 9 -4 9 -10 0 -18 -7 -18 -15z"/>
</g>
</svg>
